# xmcd
#
# Track frame offsets: 
#        182
#        15017
#        24802
#        35760
#        46320
#        56302
#        68550
#        82255
#        97257
#        110892
#        124240
#
# Disc length: 1840 seconds
#
# Revision: 3
# Processed by: cddbd v1.5.2PL0 Copyright (c) Steve Scherf et al.
# Submitted via: ExactAudioCopy v0.95b2
#
DISCID=8b072e0b
DTITLE=Otis Redding - The Immortal Otis Redding
DYEAR=1968
DGENRE=R&B
TTITLE0=I've Got Dreams To Remember
TTITLE1=You've Made A Man Out Of Me
TTITLE2=Nobody's Fault But Mine
TTITLE3=Hard To Handle
TTITLE4=Thousand Miles Away
TTITLE5=The Happy Song ( Dum-Dum-De-De-De-Dum-Dum)
TTITLE6=Think About It
TTITLE7=A Waste Of Time
TTITLE8=Champagne And Wine
TTITLE9=A Fool For You
TTITLE10=Amen
EXTD=
EXTT0=
EXTT1=
EXTT2=
EXTT3=
EXTT4=
EXTT5=
EXTT6=
EXTT7=
EXTT8=
EXTT9=
EXTT10=
PLAYORDER=
